<svg width="24" height="24" viewBox="0 0 24 24" fill="none" xmlns="http://www.w3.org/2000/svg">
<rect width="24" height="24" rx="12" fill="white"/>
<path d="M3.27768 10.2291C3.2221 10.4044 3.1537 10.6407 3.10938 10.82C3.14015 10.6958 3.19732 10.5796 3.27699 10.4794C3.35665 10.3793 3.45696 10.2974 3.57108 10.2395C3.79696 9.9519 4.08553 9.71966 4.41478 9.56049C4.74403 9.40132 5.10527 9.31943 5.47097 9.32105V9.3143C4.10635 8.92505 3.6829 9.37077 3.56455 9.58025C3.45253 9.78878 3.35676 10.0057 3.27812 10.2289" fill="#007AFF"/>
<path d="M4.69093 8.1473L4.49023 8.33855C4.72108 8.15045 5.10178 8.19409 5.68791 8.47647C5.81512 8.2502 5.97638 8.04485 6.16603 7.86762C5.88816 7.66647 5.60646 7.49119 5.42758 7.57354C5.16825 7.74643 4.92197 7.93812 4.69071 8.14707" fill="#007AFF"/>
<path d="M7.49484 6.57927C7.28649 6.65532 7.00906 6.7568 6.80273 6.8405C6.9107 6.95421 7.00774 7.07783 7.09254 7.20972C7.40357 7.04257 7.72703 6.89965 8.06004 6.78222C8.00401 6.55092 7.99028 6.4355 8.06161 6.40625C7.89128 6.45778 7.66314 6.52144 7.49439 6.57994" fill="#007AFF"/>
<path d="M10.8793 5.94711C10.5623 5.97276 10.14 6.01191 9.82386 6.04881C9.65871 6.08954 9.58581 6.14804 9.50391 6.39532C9.93499 6.31403 10.3702 6.25634 10.8076 6.22251C10.8724 6.13229 10.9574 6.05844 11.0558 6.00684C11.1542 5.95524 11.2633 5.92732 11.3743 5.92529L10.8793 5.94779" fill="#007AFF"/>
<path d="M14.401 6.13598C14.1044 6.09098 13.7089 6.03518 13.411 6.00098C13.1134 5.96585 12.813 6.03666 12.5625 6.201C13.0168 6.22432 13.4696 6.27156 13.919 6.34253C14.2549 6.19887 14.6279 6.16647 14.9835 6.25006C14.8087 6.21563 14.5767 6.16523 14.401 6.13756" fill="#007AFF"/>
<path d="M17.578 7.13372C17.358 7.03247 17.0644 6.89971 16.8412 6.80769C16.4014 6.62681 15.9162 6.58748 15.4531 6.69519C15.8154 6.80633 16.1698 6.94164 16.514 7.10019C17.1208 7.02676 17.7341 7.16917 18.2465 7.50249C18.0472 7.38842 17.7819 7.23407 17.5769 7.13372" fill="#007AFF"/>
<path d="M20.7314 10.4127C20.5827 9.9907 20.378 9.59059 20.1226 9.22316L19.9651 9.00829C19.2577 8.14789 18.5447 7.76674 17.5801 7.73389C17.8065 7.90481 18.0106 8.10346 18.1876 8.32518C19.7907 8.55018 20.8941 9.94968 20.9985 11.8901C20.9852 11.3869 20.8948 10.8887 20.7305 10.413" fill="#007AFF"/>
<path d="M18.4408 16.3577C18.7472 16.1606 19.0376 15.9398 19.3093 15.6973C19.4117 15.5985 19.549 15.468 19.6468 15.3645C21.6464 13.0641 20.7379 9.74445 18.5909 9.14258C18.6139 9.24719 18.6264 9.35385 18.628 9.46095V9.5181C18.6259 9.62364 18.6133 9.7287 18.5905 9.83176C20.8873 10.8609 20.6616 14.9681 18.2246 16.4902L18.4402 16.3579" fill="#007AFF"/>
<path d="M15.437 17.5678C15.736 17.4911 16.1331 17.3811 16.4297 17.2911C19.3695 16.194 19.8384 11.7142 18.1883 10.6367C18.011 10.8528 17.8069 11.0453 17.5808 11.2096C18.9758 12.738 17.5461 17.056 14.9258 17.6761L15.4365 17.5681" fill="#007AFF"/>
<path d="M12.016 17.925C12.2932 17.9226 12.6631 17.9187 12.9403 17.9079C15.3822 17.6575 17.1201 13.2054 16.5153 11.812C16.1707 11.9611 15.8163 12.0862 15.4544 12.1864C15.4488 13.9673 13.0343 17.9464 11.3027 17.9014C11.5167 17.9091 11.802 17.9239 12.0158 17.9239" fill="#007AFF"/>
<path d="M8.47406 17.4663C8.74676 17.5316 9.11149 17.615 9.38576 17.6706C10.4046 17.7451 12.9702 14.3109 13.9177 12.4956C13.4664 12.5535 13.0124 12.5875 12.5576 12.5975C11.818 13.3103 9.86636 15.5522 9.48274 15.995C8.49499 17.1335 8.12779 17.3495 7.99414 17.3302L8.47406 17.4665" fill="#007AFF"/>
<path d="M5.49778 16.1804C5.79344 16.3773 6.10159 16.5547 6.42028 16.7116L6.44638 16.7244C6.50106 16.4348 8.92925 13.5548 10.804 12.5243C10.3668 12.4777 9.93255 12.4075 9.50301 12.314C7.26336 13.1663 4.97713 15.774 5.37066 16.094L5.49666 16.1804" fill="#007AFF"/>
<path d="M3.87715 14.6223C3.98313 14.7638 4.12623 14.9519 4.23895 15.0862C3.7345 14.323 5.86143 12.3466 8.06215 11.8858C7.72869 11.7584 7.40528 11.6061 7.09465 11.4302C5.06965 11.6487 3.14207 13.0727 3.53852 14.0591C3.63572 14.2319 3.76577 14.4618 3.87782 14.6216" fill="#007AFF"/>
<path d="M3 11.8269V11.9232C3.00877 12.0904 3.0225 12.3129 3.04117 12.4787C2.98672 11.3947 4.64452 10.6943 6.16664 10.744C5.97681 10.5612 5.8155 10.351 5.68807 10.1203C4.4013 9.95627 3.69795 10.2859 3.33412 10.5908C3.12256 10.9689 3.00792 11.3935 3.00045 11.8267" fill="#007AFF"/>
</svg>
