<svg width="24" height="24" viewBox="0 0 24 24" fill="none" xmlns="http://www.w3.org/2000/svg">
<g clip-path="url(#clip0_3149_89977)">
<rect width="24" height="24" rx="12" fill="white"/>
<path d="M12 24C18.65 24 24 18.65 24 12C24 5.34996 18.65 0 12 0C5.34996 0 0 5.34996 0 12C0 18.65 5.34996 24 12 24Z" fill="#2775CA"/>
<path d="M15.2996 13.9001C15.2996 12.1501 14.2496 11.5501 12.1496 11.3002C10.6496 11.1001 10.3496 10.7002 10.3496 10.0001C10.3496 9.30002 10.8496 8.85014 11.8496 8.85014C12.7496 8.85014 13.2496 9.15014 13.4996 9.90014C13.5496 10.0501 13.6996 10.1501 13.8496 10.1501H14.6495C14.8496 10.1501 14.9996 10.0001 14.9996 9.80018V9.75014C14.7995 8.6501 13.8995 7.80014 12.7496 7.70018V6.50018C12.7496 6.30014 12.5996 6.15014 12.3496 6.1001H11.5996C11.3996 6.1001 11.2496 6.2501 11.1995 6.50018V7.65014C9.69953 7.85018 8.74961 8.85014 8.74961 10.1002C8.74961 11.7502 9.74957 12.4001 11.8496 12.6502C13.2496 12.9001 13.6996 13.2001 13.6996 14.0002C13.6996 14.8002 12.9995 15.3502 12.0496 15.3502C10.7495 15.3502 10.2995 14.8001 10.1495 14.0501C10.0996 13.8502 9.94961 13.7501 9.79961 13.7501H8.94953C8.74961 13.7501 8.59961 13.9001 8.59961 14.1001V14.1502C8.79953 15.4001 9.59957 16.3001 11.2496 16.5502V17.7502C11.2496 17.9501 11.3996 18.1001 11.6495 18.1501H12.3995C12.5996 18.1501 12.7496 18.0001 12.7996 17.7502V16.5502C14.2996 16.3001 15.2996 15.2501 15.2996 13.9001Z" fill="white"/>
<path d="M9.45097 19.1499C5.55097 17.75 3.55094 13.4 5.00102 9.54992C5.75102 7.44992 7.40101 5.84996 9.45097 5.09996C9.65101 5 9.75097 4.85 9.75097 4.59992V3.89996C9.75097 3.69992 9.65101 3.54992 9.45097 3.5C9.40093 3.5 9.30098 3.5 9.25094 3.54992C4.50098 5.04992 1.90093 10.1 3.40093 14.85C4.30093 17.6499 6.45098 19.8 9.25094 20.7C9.45098 20.7999 9.65102 20.7 9.70094 20.4999C9.75098 20.45 9.75097 20.4 9.75097 20.3V19.5999C9.75097 19.4499 9.60097 19.25 9.45097 19.1499ZM14.751 3.54992C14.551 3.44996 14.3509 3.54992 14.301 3.74996C14.251 3.8 14.251 3.84992 14.251 3.95V4.64996C14.251 4.85 14.401 5.04992 14.551 5.15C18.451 6.54992 20.451 10.8999 19.0009 14.75C18.2509 16.85 16.6009 18.45 14.551 19.2C14.3509 19.2999 14.251 19.4499 14.251 19.7V20.4C14.251 20.6 14.3509 20.75 14.551 20.7999C14.601 20.7999 14.701 20.7999 14.751 20.75C19.501 19.25 22.101 14.1999 20.601 9.44996C19.701 6.59996 17.5009 4.44992 14.751 3.54992Z" fill="white"/>
</g>
<defs>
<clipPath id="clip0_3149_89977">
<rect width="24" height="24" rx="12" fill="white"/>
</clipPath>
</defs>
</svg>
