<svg width="24" height="24" viewBox="0 0 24 24" fill="none" xmlns="http://www.w3.org/2000/svg">
<rect width="24" height="24" rx="12" fill="white"/>
<g clip-path="url(#clip0_3149_89985)">
<path fill-rule="evenodd" clip-rule="evenodd" d="M5.18632 3.84186L1.26612 12.0762C1.2512 12.1069 1.24647 12.1415 1.25263 12.175C1.25878 12.2085 1.27549 12.2391 1.30032 12.2625L11.8879 22.4079C11.9179 22.4367 11.958 22.4528 11.9996 22.4528C12.0413 22.4528 12.0814 22.4367 12.1114 22.4079L22.699 12.2631C22.7238 12.2398 22.7405 12.2091 22.7467 12.1756C22.7528 12.1421 22.7481 12.1075 22.7332 12.0769L18.813 3.84249C18.8003 3.81484 18.78 3.79141 18.7544 3.77501C18.7288 3.75861 18.699 3.74993 18.6686 3.75001L5.33201 3.75001C5.30145 3.74963 5.27144 3.7581 5.24559 3.7744C5.21974 3.7907 5.19915 3.81412 5.18632 3.84186Z" fill="#50AF95"/>
<path fill-rule="evenodd" clip-rule="evenodd" d="M13.36 12.922C13.284 12.9277 12.8913 12.9511 12.0152 12.9511C11.3185 12.9511 10.8238 12.9302 10.6502 12.922C7.95759 12.8035 5.94776 12.3348 5.94776 11.7736C5.94776 11.2124 7.95759 10.7443 10.6502 10.6239V12.4551C10.8263 12.4678 11.3305 12.4976 12.0273 12.4976C12.8634 12.4976 13.2821 12.4627 13.3574 12.4558V10.6252C16.0444 10.7449 18.0498 11.2136 18.0498 11.7736C18.0498 12.3335 16.045 12.8022 13.3574 12.9213L13.36 12.922ZM13.36 10.4358V8.79716H17.1098V6.29834H6.90042V8.79716H10.6496V10.4352C7.60224 10.5752 5.31055 11.1788 5.31055 11.9022C5.31055 12.6255 7.60224 13.2285 10.6496 13.3691V18.6202H13.3593V13.3672C16.3997 13.2273 18.6876 12.6243 18.6876 11.9015C18.6876 11.1788 16.4016 10.5758 13.3593 10.4352L13.36 10.4358Z" fill="white"/>
</g>
<defs>
<clipPath id="clip0_3149_89985">
<rect width="21.5" height="18.7028" fill="white" transform="translate(1.25 3.75)"/>
</clipPath>
</defs>
</svg>
