<svg width="64" height="64" viewBox="0 0 64 64" fill="none" xmlns="http://www.w3.org/2000/svg">
<g filter="url(#filter0_d_3148_243142)">
<rect x="8" width="48" height="48" rx="4" fill="white" shape-rendering="crispEdges"/>
<rect x="8.5" y="0.5" width="47" height="47" rx="3.5" stroke="#BBBBBB" shape-rendering="crispEdges"/>
<path d="M35 33V25C35 24.7348 34.8946 24.4804 34.7071 24.2929C34.5196 24.1053 34.2652 24 34 24H30C29.7348 24 29.4804 24.1053 29.2929 24.2929C29.1054 24.4804 29 24.7348 29 25V33M23 22C22.9999 21.7091 23.0633 21.4216 23.1858 21.1577C23.3082 20.8938 23.4868 20.6598 23.709 20.472L30.709 14.472C31.07 14.1669 31.5274 13.9995 32 13.9995C32.4726 13.9995 32.93 14.1669 33.291 14.472L40.291 20.472C40.5132 20.6598 40.6918 20.8938 40.8142 21.1577C40.9367 21.4216 41.0001 21.7091 41 22V31C41 31.5304 40.7893 32.0391 40.4142 32.4142C40.0391 32.7893 39.5304 33 39 33H25C24.4696 33 23.9609 32.7893 23.5858 32.4142C23.2107 32.0391 23 31.5304 23 31V22Z" stroke="#111111" stroke-width="2" stroke-linecap="round" stroke-linejoin="round"/>
</g>
<defs>
<filter id="filter0_d_3148_243142" x="0" y="0" width="64" height="64" filterUnits="userSpaceOnUse" color-interpolation-filters="sRGB">
<feFlood flood-opacity="0" result="BackgroundImageFix"/>
<feColorMatrix in="SourceAlpha" type="matrix" values="0 0 0 0 0 0 0 0 0 0 0 0 0 0 0 0 0 0 127 0" result="hardAlpha"/>
<feOffset dy="8"/>
<feGaussianBlur stdDeviation="4"/>
<feComposite in2="hardAlpha" operator="out"/>
<feColorMatrix type="matrix" values="0 0 0 0 0 0 0 0 0 0 0 0 0 0 0 0 0 0 0.2 0"/>
<feBlend mode="normal" in2="BackgroundImageFix" result="effect1_dropShadow_3148_243142"/>
<feBlend mode="normal" in="SourceGraphic" in2="effect1_dropShadow_3148_243142" result="shape"/>
</filter>
</defs>
</svg>
